<svg xmlns="http://www.w3.org/2000/svg" version="1.1" xmlns:xlink="http://www.w3.org/1999/xlink" xmlns:svgjs="http://svgjs.dev/svgjs" width="2000" height="388" viewBox="0 0 2000 388"><g transform="matrix(1,0,0,1,-1.2121212121212466,0.8991052887827777)"><svg viewBox="0 0 396 77" data-background-color="#ffffff" preserveAspectRatio="xMidYMid meet" height="388" width="2000" xmlns="http://www.w3.org/2000/svg" xmlns:xlink="http://www.w3.org/1999/xlink"><g id="tight-bounds" transform="matrix(1,0,0,1,0.2400000000000091,-0.17843068875328072)"><svg viewBox="0 0 395.52 77.35686137750653" height="77.35686137750653" width="395.52"><g><svg viewBox="0 0 395.52 77.35686137750653" height="77.35686137750653" width="395.52"><g><svg viewBox="0 0 395.52 77.35686137750653" height="77.35686137750653" width="395.52"><g id="textblocktransform"><svg viewBox="0 0 395.52 77.35686137750653" height="77.35686137750653" width="395.52" id="textblock"><g><svg viewBox="0 0 395.52 77.35686137750653" height="77.35686137750653" width="395.52"><g transform="matrix(1,0,0,1,0,0)"><svg width="395.52" viewBox="1.39 -47.19 252.01000000000002 49.28999999999999" height="77.35686137750653" data-palette-color="#264f0b"><path d="M20.14-2.81L20.14-2.81Q19.17-2 17.93-1.14 16.7-0.27 15.31 0.45 13.92 1.17 12.39 1.64 10.86 2.1 9.3 2.1L9.3 2.1Q8.84 2.1 8.36 1.98 7.89 1.86 7.52 1.55 7.15 1.25 6.92 0.73 6.69 0.22 6.74-0.56L6.74-0.56Q6.74-1.44 6.84-5.08L6.84-5.08Q6.86-6.62 6.92-8.91 6.98-11.21 7.07-14.45 7.15-17.7 7.28-22 7.4-26.29 7.54-31.86L7.54-31.86Q5.93-31.67 4.38-31.49 2.83-31.32 1.39-31.2L1.39-31.2 7.64-35.79Q8.54-35.64 9.56-35.6 10.57-35.55 11.55-35.55L11.55-35.55Q12.99-35.55 14.36-35.64 15.72-35.74 17.03-35.88 18.33-36.01 19.62-36.11 20.9-36.21 22.19-36.21L22.19-36.21Q24.29-36.21 26.34-35.68 28.39-35.16 30.02-34.07 31.64-32.98 32.64-31.31 33.64-29.64 33.64-27.34L33.64-27.34Q33.64-25.61 32.95-23.86 32.25-22.12 31.07-20.48 29.88-18.85 28.32-17.41 26.76-15.97 25.04-14.89 23.32-13.82 21.53-13.16 19.75-12.5 18.14-12.45L18.14-12.45 17.41-12.94Q19.53-13.43 21.34-14.45 23.14-15.48 24.46-16.93 25.78-18.38 26.51-20.23 27.25-22.07 27.25-24.19L27.25-24.19Q27.25-25.68 26.81-26.88 26.37-28.08 25.59-29 24.8-29.93 23.77-30.6 22.73-31.27 21.53-31.7 20.34-32.13 19.06-32.34 17.77-32.54 16.5-32.54L16.5-32.54Q15.8-32.54 15.08-32.52 14.36-32.5 13.65-32.45L13.65-32.45 12.7-2.81Q13.26-2.39 14.04-2.22 14.82-2.05 15.65-2.05L15.65-2.05Q16.48-2.05 17.29-2.16 18.09-2.27 18.73-2.42L18.73-2.42Q19.48-2.59 20.14-2.81ZM47.6-45.61L47.6-45.61Q47.6-44.9 47.63-44.25 47.65-43.6 47.65-42.99L47.65-42.99Q47.65-41.55 47.41-40.53 47.17-39.5 46.26-38.89L46.26-38.89Q45.73-38.5 44.92-37.99L44.92-37.99Q43.58-37.11 40.6-35.3L40.6-35.3Q40.89-36.08 41.03-37.19 41.16-38.31 41.21-39.31L41.21-39.31Q41.26-40.48 41.21-41.75L41.21-41.75Q42.75-42.55 43.92-43.25 45.09-43.95 45.92-44.48L45.92-44.48Q46.9-45.09 47.6-45.61ZM56.2-4L56.2-4Q53.42-2.17 51.47-1.12 49.53-0.07 48.14 0.44 46.75 0.95 45.8 1.03 44.85 1.1 44.06 0.95L44.06 0.95Q43.36 0.83 42.67 0.59 41.99 0.34 41.44-0.31 40.89-0.95 40.55-2.17 40.21-3.39 40.21-5.49L40.21-5.49Q40.21-7.25 40.31-8.97 40.4-10.69 40.51-12.39 40.62-14.09 40.68-15.76 40.74-17.43 40.7-19.09L40.7-19.09Q40.65-20.7 40.11-21.45 39.57-22.19 38.5-22.19L38.5-22.19Q38.08-22.19 37.6-22.09 37.11-22 36.55-21.8L36.55-21.8Q37.42-22.41 38.35-23.03 39.28-23.66 40.23-24.15 41.18-24.63 42.15-24.94 43.11-25.24 44.06-25.24L44.06-25.24Q45.09-25.24 45.86-24.78 46.63-24.32 46.85-23.24L46.85-23.24Q46.92-22.83 46.96-22.02 46.99-21.22 46.99-20.14L46.99-20.14Q46.99-18.55 46.93-16.63 46.87-14.7 46.8-12.83 46.73-10.96 46.65-9.39 46.58-7.81 46.56-6.96L46.56-6.96Q46.53-6.15 46.85-5.35 47.17-4.54 47.79-3.89 48.41-3.25 49.33-2.84 50.24-2.44 51.41-2.44L51.41-2.44Q52.44-2.44 53.64-2.81 54.83-3.17 56.2-4ZM81.61-5.4L81.61-5.4Q80.59-4.49 79.08-3.47 77.58-2.44 75.76-1.55 73.95-0.66 71.89-0.05 69.84 0.56 67.72 0.61L67.72 0.61Q66.5 0.66 65.14 0.4 63.79 0.15 62.48-0.42 61.18-0.98 59.99-1.84 58.81-2.71 57.91-3.94 57-5.18 56.48-6.76 55.95-8.35 55.95-10.3L55.95-10.3Q55.95-12.72 56.76-14.81 57.56-16.89 58.93-18.62 60.3-20.34 62.15-21.67 64.01-23 66.11-23.9 68.21-24.8 70.45-25.28 72.7-25.76 74.85-25.76L74.85-25.76Q75.12-25.76 75.68-25.74 76.24-25.73 76.92-25.68 77.61-25.63 78.33-25.52 79.05-25.42 79.65-25.24 80.24-25.07 80.62-24.82 81-24.56 81-24.19L81-24.19Q81-23.78 80.59-23.39 80.17-23 79.61-22.66L79.61-22.66Q79.17-22.36 78.46-21.95L78.46-21.95Q77.85-21.61 76.91-21.07 75.97-20.53 74.6-19.8L74.6-19.8Q75.04-20.58 74.75-21.12 74.46-21.66 73.69-21.98 72.92-22.31 71.83-22.46 70.75-22.61 69.6-22.61L69.6-22.61Q68.84-22.61 68.12-22.55 67.4-22.49 66.78-22.4 66.16-22.31 65.68-22.19 65.2-22.07 64.91-21.95L64.91-21.95Q64.45-21.75 63.96-20.96 63.47-20.17 63.07-19.02 62.67-17.87 62.41-16.46 62.15-15.04 62.15-13.6L62.15-13.6Q62.15-11.4 62.98-9.5 63.81-7.59 65.24-6.18 66.67-4.76 68.57-3.96 70.48-3.15 72.6-3.15L72.6-3.15Q74.9-3.15 77.19-3.82 79.49-4.49 81.61-5.4ZM110.66-5.4L110.66-5.4Q109.64-4.49 108.13-3.47 106.63-2.44 104.81-1.55 103-0.66 100.94-0.05 98.89 0.56 96.77 0.61L96.77 0.61Q95.55 0.66 94.19 0.4 92.84 0.15 91.53-0.42 90.23-0.98 89.04-1.84 87.86-2.71 86.96-3.94 86.05-5.18 85.53-6.76 85-8.35 85-10.3L85-10.3Q85-12.72 85.81-14.81 86.61-16.89 87.98-18.62 89.35-20.34 91.2-21.67 93.06-23 95.16-23.9 97.26-24.8 99.5-25.28 101.75-25.76 103.9-25.76L103.9-25.76Q104.17-25.76 104.73-25.74 105.29-25.73 105.97-25.68 106.66-25.63 107.38-25.52 108.1-25.42 108.7-25.24 109.29-25.07 109.67-24.82 110.05-24.56 110.05-24.19L110.05-24.19Q110.05-23.78 109.64-23.39 109.22-23 108.66-22.66L108.66-22.66Q108.22-22.36 107.51-21.95L107.51-21.95Q106.9-21.61 105.96-21.07 105.02-20.53 103.65-19.8L103.65-19.8Q104.09-20.58 103.8-21.12 103.51-21.66 102.74-21.98 101.97-22.31 100.88-22.46 99.8-22.61 98.65-22.61L98.65-22.61Q97.89-22.61 97.17-22.55 96.45-22.49 95.83-22.4 95.21-22.31 94.73-22.19 94.26-22.07 93.96-21.95L93.96-21.95Q93.5-21.75 93.01-20.96 92.52-20.17 92.12-19.02 91.72-17.87 91.46-16.46 91.2-15.04 91.2-13.6L91.2-13.6Q91.2-11.4 92.03-9.5 92.86-7.59 94.29-6.18 95.72-4.76 97.62-3.96 99.53-3.15 101.65-3.15L101.65-3.15Q103.95-3.15 106.24-3.82 108.54-4.49 110.66-5.4ZM144.2-14.21L144.2-14.21Q144.2-12.18 143.64-10.52 143.08-8.86 142.3-7.62 141.52-6.37 140.71-5.54 139.91-4.71 139.42-4.35L139.42-4.35Q138-3.32 136.51-2.34 135.02-1.37 133.45-0.6 131.87 0.17 130.21 0.63 128.55 1.1 126.8 1.1L126.8 1.1Q124.18 1.1 121.85 0.44 119.52-0.22 117.78-1.54 116.03-2.86 115.02-4.86 114-6.86 114-9.55L114-9.55Q114-11.91 114.82-14 115.64-16.09 117.02-17.85 118.4-19.6 120.25-21.01 122.11-22.41 124.18-23.39 126.26-24.37 128.46-24.88 130.65-25.39 132.7-25.39L132.7-25.39Q135.24-25.39 137.36-24.55 139.47-23.71 140.99-22.2 142.52-20.7 143.36-18.65 144.2-16.6 144.2-14.21ZM127.36-22.56L127.36-22.56Q126.11-22.56 125.09-22.11 124.06-21.66 123.27-20.89 122.48-20.12 121.9-19.1 121.33-18.09 120.95-16.98 120.57-15.87 120.39-14.73 120.2-13.6 120.2-12.6L120.2-12.6Q120.2-10.33 121.03-8.36 121.87-6.4 123.32-4.93 124.77-3.47 126.71-2.64 128.65-1.81 130.85-1.81L130.85-1.81Q132.22-1.81 133.5-2.33 134.78-2.86 135.77-3.99 136.76-5.13 137.36-6.92 137.95-8.72 137.95-11.25L137.95-11.25Q137.95-13.48 137.12-15.53 136.29-17.58 134.85-19.14 133.41-20.7 131.48-21.63 129.56-22.56 127.36-22.56ZM167.15-4.49L167.15-4.49Q164.71-2.81 163.05-1.72 161.39-0.63 160.16 0.01 158.92 0.66 157.93 0.9 156.95 1.15 155.85 1.15L155.85 1.15Q154.89 1.15 154 0.7 153.11 0.24 152.42-0.96 151.72-2.17 151.31-4.28 150.89-6.4 150.89-9.74L150.89-9.74Q150.89-13.04 150.96-16.65 151.04-20.26 151.12-23.9 151.21-27.54 151.28-31.03 151.35-34.52 151.35-37.55L151.35-37.55Q151.35-40.53 150.45-42.19 149.55-43.85 147.69-43.85L147.69-43.85Q147.13-43.85 146.45-43.69 145.76-43.53 145.01-43.14L145.01-43.14Q145.96-43.82 147.01-44.54 148.06-45.26 149.15-45.85 150.23-46.44 151.34-46.81 152.45-47.19 153.55-47.19L153.55-47.19Q154.94-47.19 155.74-46.5 156.53-45.8 156.91-44.78 157.29-43.75 157.37-42.54 157.46-41.33 157.46-40.31L157.46-40.31Q157.43-38.75 157.4-36.55 157.36-34.35 157.31-31.82 157.26-29.3 157.21-26.59 157.17-23.88 157.12-21.28 157.07-18.68 157.03-16.33 156.99-13.99 156.95-12.21L156.95-12.21Q156.9-9.81 157.29-8.07 157.68-6.32 158.41-5.2 159.14-4.08 160.17-3.54 161.19-3 162.44-3L162.44-3Q164.68-3 167.15-4.49ZM176.74-45.61L176.74-45.61Q176.74-44.9 176.77-44.25 176.79-43.6 176.79-42.99L176.79-42.99Q176.79-41.55 176.55-40.53 176.3-39.5 175.4-38.89L175.4-38.89Q174.86-38.5 174.06-37.99L174.06-37.99Q172.71-37.11 169.74-35.3L169.74-35.3Q170.03-36.08 170.16-37.19 170.3-38.31 170.35-39.31L170.35-39.31Q170.4-40.48 170.35-41.75L170.35-41.75Q171.88-42.55 173.06-43.25 174.23-43.95 175.06-44.48L175.06-44.48Q176.03-45.09 176.74-45.61ZM185.34-4L185.34-4Q182.55-2.17 180.61-1.12 178.67-0.07 177.28 0.44 175.89 0.95 174.94 1.03 173.98 1.1 173.2 0.95L173.2 0.95Q172.49 0.83 171.81 0.59 171.13 0.34 170.58-0.31 170.03-0.95 169.69-2.17 169.35-3.39 169.35-5.49L169.35-5.49Q169.35-7.25 169.44-8.97 169.54-10.69 169.65-12.39 169.76-14.09 169.82-15.76 169.88-17.43 169.83-19.09L169.83-19.09Q169.78-20.7 169.25-21.45 168.71-22.19 167.64-22.19L167.64-22.19Q167.22-22.19 166.73-22.09 166.24-22 165.68-21.8L165.68-21.8Q166.56-22.41 167.49-23.03 168.42-23.66 169.37-24.15 170.32-24.63 171.29-24.94 172.25-25.24 173.2-25.24L173.2-25.24Q174.23-25.24 175-24.78 175.77-24.32 175.99-23.24L175.99-23.24Q176.06-22.83 176.1-22.02 176.13-21.22 176.13-20.14L176.13-20.14Q176.13-18.55 176.07-16.63 176.01-14.7 175.94-12.83 175.86-10.96 175.79-9.39 175.72-7.81 175.69-6.96L175.69-6.96Q175.67-6.15 175.99-5.35 176.3-4.54 176.93-3.89 177.55-3.25 178.46-2.84 179.38-2.44 180.55-2.44L180.55-2.44Q181.58-2.44 182.77-2.81 183.97-3.17 185.34-4ZM194.54-2.71L194.54-2.71 188.7 1.49Q188.92-3.22 189.05-6.54 189.17-9.86 189.22-12.01L189.22-12.01Q189.29-14.53 189.29-16.16L189.29-16.16Q189.41-19.12 188.48-20.79 187.56-22.46 185.65-22.46L185.65-22.46Q185.04-22.46 184.37-22.28 183.7-22.09 182.94-21.75L182.94-21.75Q183.89-22.44 184.94-23.16 185.99-23.88 187.09-24.46 188.19-25.05 189.3-25.43 190.41-25.81 191.49-25.81L191.49-25.81Q192.51-25.81 193.35-25.39 194.2-24.98 194.64-24L194.64-24Q195.03-23.17 195.19-22.14 195.34-21.12 195.39-19.9L195.39-19.9Q196.64-21.22 198.19-22.36 199.74-23.51 201.42-24.32 203.11-25.12 204.82-25.51 206.53-25.9 208.04-25.71L208.04-25.71Q209.14-25.56 210.32-25.1 211.51-24.63 212.49-23.68 213.48-22.73 214.09-21.18 214.7-19.63 214.66-17.31L214.66-17.31Q214.58-14.58 214.41-12.29 214.24-10.01 214.24-8.25L214.24-8.25Q214.24-7.2 214.41-6.26 214.58-5.32 215.01-4.63 215.44-3.93 216.17-3.52 216.9-3.1 218-3.1L218-3.1Q218.98-3.1 220.06-3.48 221.15-3.86 222.25-4.64L222.25-4.64Q220.47-3.05 218.99-1.98 217.51-0.9 216.24-0.24 214.97 0.42 213.87 0.7 212.78 0.98 211.75 0.95L211.75 0.95Q210.72 0.93 209.99 0.55 209.26 0.17 208.82-0.62 208.38-1.42 208.21-2.67 208.04-3.93 208.09-5.76L208.09-5.76Q208.16-7.37 208.28-9.31 208.41-11.25 208.41-13.16L208.41-13.16Q208.41-15.33 208.11-16.89 207.82-18.46 207.05-19.47 206.28-20.48 204.93-20.97 203.57-21.46 201.45-21.46L201.45-21.46Q199.91-21.46 198.84-20.86 197.76-20.26 197.05-19.24 196.34-18.21 195.94-16.86 195.54-15.5 195.33-13.98 195.12-12.45 195.05-10.85 194.98-9.25 194.94-7.76 194.9-6.27 194.83-4.97 194.76-3.66 194.54-2.71ZM253.4-14.21L253.4-14.21Q253.4-12.18 252.84-10.52 252.27-8.86 251.49-7.62 250.71-6.37 249.91-5.54 249.1-4.71 248.61-4.35L248.61-4.35Q247.2-3.32 245.71-2.34 244.22-1.37 242.64-0.6 241.07 0.17 239.41 0.63 237.75 1.1 235.99 1.1L235.99 1.1Q233.38 1.1 231.05 0.44 228.72-0.22 226.97-1.54 225.22-2.86 224.21-4.86 223.2-6.86 223.2-9.55L223.2-9.55Q223.2-11.91 224.02-14 224.83-16.09 226.21-17.85 227.59-19.6 229.45-21.01 231.3-22.41 233.38-23.39 235.45-24.37 237.65-24.88 239.85-25.39 241.9-25.39L241.9-25.39Q244.44-25.39 246.55-24.55 248.66-23.71 250.19-22.2 251.71-20.7 252.56-18.65 253.4-16.6 253.4-14.21ZM236.55-22.56L236.55-22.56Q235.31-22.56 234.28-22.11 233.26-21.66 232.46-20.89 231.67-20.12 231.1-19.1 230.52-18.09 230.14-16.98 229.77-15.87 229.58-14.73 229.4-13.6 229.4-12.6L229.4-12.6Q229.4-10.33 230.23-8.36 231.06-6.4 232.51-4.93 233.96-3.47 235.91-2.64 237.85-1.81 240.04-1.81L240.04-1.81Q241.41-1.81 242.69-2.33 243.97-2.86 244.96-3.99 245.95-5.13 246.55-6.92 247.15-8.72 247.15-11.25L247.15-11.25Q247.15-13.48 246.32-15.53 245.49-17.58 244.05-19.14 242.61-20.7 240.68-21.63 238.75-22.56 236.55-22.56Z" opacity="1" transform="matrix(1,0,0,1,0,0)" fill="#ffffff" class="wordmark-text-0" data-fill-palette-color="primary" id="text-0"></path></svg></g></svg></g></svg></g></svg></g></svg></g><defs></defs></svg><rect width="395.52" height="77.35686137750653" fill="none" stroke="none" visibility="hidden"></rect></g></svg></g></svg>